<mxfile host="app.diagrams.net" modified="2021-09-14T17:08:26.102Z" agent="5.0 (Windows NT 10.0; Win64; x64) AppleWebKit/537.36 (KHTML, like Gecko) Chrome/93.0.4577.63 Safari/537.36" etag="BweGzV3fcpZsOjqi5Q46" version="14.7.7" type="github">
  <diagram id="ULFNWX03TCV8fRx_-Ua6" name="Page-1">
    <mxGraphModel dx="920" dy="513" grid="1" gridSize="10" guides="1" tooltips="1" connect="1" arrows="1" fold="1" page="1" pageScale="1" pageWidth="583" pageHeight="827" math="0" shadow="0">
      <root>
        <mxCell id="0" />
        <mxCell id="1" parent="0" />
        <mxCell id="aRpkVplMo8si03oJWUbq-1" value="Inicio&lt;br&gt;(Reloj para un dia, considerando que ya esta seteada la hora)" style="ellipse;whiteSpace=wrap;html=1;" vertex="1" parent="1">
          <mxGeometry x="354" width="126" height="90" as="geometry" />
        </mxCell>
        <mxCell id="aRpkVplMo8si03oJWUbq-2" value="多Tiene Bateria?" style="html=1;whiteSpace=wrap;aspect=fixed;shape=isoRectangle;" vertex="1" parent="1">
          <mxGeometry x="339" y="130" width="150" height="90" as="geometry" />
        </mxCell>
        <mxCell id="aRpkVplMo8si03oJWUbq-3" value="" style="endArrow=classic;html=1;exitX=0.5;exitY=1;exitDx=0;exitDy=0;entryX=0.504;entryY=0.007;entryDx=0;entryDy=0;entryPerimeter=0;" edge="1" parent="1" source="aRpkVplMo8si03oJWUbq-1" target="aRpkVplMo8si03oJWUbq-2">
          <mxGeometry width="50" height="50" relative="1" as="geometry">
            <mxPoint x="380" y="250" as="sourcePoint" />
            <mxPoint x="430" y="200" as="targetPoint" />
          </mxGeometry>
        </mxCell>
        <mxCell id="aRpkVplMo8si03oJWUbq-4" value="Si" style="text;html=1;align=center;verticalAlign=middle;resizable=0;points=[];autosize=1;strokeColor=none;" vertex="1" parent="1">
          <mxGeometry x="414" y="100" width="30" height="20" as="geometry" />
        </mxCell>
        <mxCell id="aRpkVplMo8si03oJWUbq-6" value="" style="endArrow=none;html=1;" edge="1" parent="1">
          <mxGeometry width="50" height="50" relative="1" as="geometry">
            <mxPoint x="320" y="175" as="sourcePoint" />
            <mxPoint x="339" y="174.5" as="targetPoint" />
          </mxGeometry>
        </mxCell>
        <mxCell id="aRpkVplMo8si03oJWUbq-7" value="No" style="text;html=1;align=center;verticalAlign=middle;resizable=0;points=[];autosize=1;strokeColor=none;" vertex="1" parent="1">
          <mxGeometry x="290" y="165" width="30" height="20" as="geometry" />
        </mxCell>
        <mxCell id="aRpkVplMo8si03oJWUbq-9" value="" style="endArrow=none;html=1;" edge="1" parent="1">
          <mxGeometry width="50" height="50" relative="1" as="geometry">
            <mxPoint x="200" y="175" as="sourcePoint" />
            <mxPoint x="290" y="174.5" as="targetPoint" />
          </mxGeometry>
        </mxCell>
        <mxCell id="aRpkVplMo8si03oJWUbq-10" value="" style="endArrow=none;html=1;exitX=0.504;exitY=0.993;exitDx=0;exitDy=0;exitPerimeter=0;" edge="1" parent="1" source="aRpkVplMo8si03oJWUbq-2">
          <mxGeometry width="50" height="50" relative="1" as="geometry">
            <mxPoint x="414" y="260" as="sourcePoint" />
            <mxPoint x="414" y="250" as="targetPoint" />
          </mxGeometry>
        </mxCell>
        <mxCell id="aRpkVplMo8si03oJWUbq-11" value="Muestra" style="text;html=1;align=center;verticalAlign=middle;resizable=0;points=[];autosize=1;strokeColor=none;" vertex="1" parent="1">
          <mxGeometry x="384" y="250" width="60" height="20" as="geometry" />
        </mxCell>
        <mxCell id="aRpkVplMo8si03oJWUbq-13" value="s=0&lt;br&gt;m=0&lt;br&gt;h=0" style="shape=parallelogram;html=1;strokeWidth=2;perimeter=parallelogramPerimeter;whiteSpace=wrap;rounded=1;arcSize=12;size=0.23;" vertex="1" parent="1">
          <mxGeometry x="364" y="310" width="100" height="60" as="geometry" />
        </mxCell>
        <mxCell id="aRpkVplMo8si03oJWUbq-14" value="多Paso un segundo?" style="html=1;whiteSpace=wrap;aspect=fixed;shape=isoRectangle;" vertex="1" parent="1">
          <mxGeometry x="339" y="400" width="150" height="90" as="geometry" />
        </mxCell>
        <mxCell id="aRpkVplMo8si03oJWUbq-17" value="s=s+1" style="rounded=1;whiteSpace=wrap;html=1;" vertex="1" parent="1">
          <mxGeometry x="354" y="525" width="120" height="60" as="geometry" />
        </mxCell>
        <mxCell id="aRpkVplMo8si03oJWUbq-18" value="多s=60?" style="html=1;whiteSpace=wrap;aspect=fixed;shape=isoRectangle;" vertex="1" parent="1">
          <mxGeometry x="339" y="610" width="150" height="90" as="geometry" />
        </mxCell>
        <mxCell id="aRpkVplMo8si03oJWUbq-19" value="mostrar h&lt;br&gt;mostrar m&lt;br&gt;mostrar s" style="rounded=1;whiteSpace=wrap;html=1;" vertex="1" parent="1">
          <mxGeometry x="630" y="465" width="120" height="60" as="geometry" />
        </mxCell>
        <mxCell id="aRpkVplMo8si03oJWUbq-20" value="" style="endArrow=classic;html=1;" edge="1" parent="1">
          <mxGeometry width="50" height="50" relative="1" as="geometry">
            <mxPoint x="414" y="270" as="sourcePoint" />
            <mxPoint x="414" y="310" as="targetPoint" />
          </mxGeometry>
        </mxCell>
        <mxCell id="aRpkVplMo8si03oJWUbq-21" value="" style="endArrow=classic;html=1;" edge="1" parent="1">
          <mxGeometry width="50" height="50" relative="1" as="geometry">
            <mxPoint x="414" y="370" as="sourcePoint" />
            <mxPoint x="414" y="400" as="targetPoint" />
          </mxGeometry>
        </mxCell>
        <mxCell id="aRpkVplMo8si03oJWUbq-22" value="" style="endArrow=classic;html=1;" edge="1" parent="1">
          <mxGeometry width="50" height="50" relative="1" as="geometry">
            <mxPoint x="414" y="487" as="sourcePoint" />
            <mxPoint x="414" y="527" as="targetPoint" />
          </mxGeometry>
        </mxCell>
        <mxCell id="aRpkVplMo8si03oJWUbq-23" value="" style="endArrow=classic;html=1;" edge="1" parent="1">
          <mxGeometry width="50" height="50" relative="1" as="geometry">
            <mxPoint x="412" y="585" as="sourcePoint" />
            <mxPoint x="412" y="615" as="targetPoint" />
          </mxGeometry>
        </mxCell>
        <mxCell id="aRpkVplMo8si03oJWUbq-24" value="" style="endArrow=none;html=1;" edge="1" parent="1">
          <mxGeometry width="50" height="50" relative="1" as="geometry">
            <mxPoint x="680" y="465" as="sourcePoint" />
            <mxPoint x="680" y="440" as="targetPoint" />
          </mxGeometry>
        </mxCell>
        <mxCell id="aRpkVplMo8si03oJWUbq-25" value="" style="endArrow=none;html=1;" edge="1" parent="1">
          <mxGeometry width="50" height="50" relative="1" as="geometry">
            <mxPoint x="489" y="655" as="sourcePoint" />
            <mxPoint x="680" y="655" as="targetPoint" />
          </mxGeometry>
        </mxCell>
        <mxCell id="aRpkVplMo8si03oJWUbq-26" value="" style="endArrow=classic;html=1;" edge="1" parent="1">
          <mxGeometry width="50" height="50" relative="1" as="geometry">
            <mxPoint x="680" y="650" as="sourcePoint" />
            <mxPoint x="680" y="530" as="targetPoint" />
          </mxGeometry>
        </mxCell>
        <mxCell id="aRpkVplMo8si03oJWUbq-27" value="" style="endArrow=classic;html=1;entryX=0.987;entryY=0.461;entryDx=0;entryDy=0;entryPerimeter=0;" edge="1" parent="1" target="aRpkVplMo8si03oJWUbq-14">
          <mxGeometry width="50" height="50" relative="1" as="geometry">
            <mxPoint x="680" y="440" as="sourcePoint" />
            <mxPoint x="489" y="450" as="targetPoint" />
          </mxGeometry>
        </mxCell>
        <mxCell id="aRpkVplMo8si03oJWUbq-28" value="No" style="text;html=1;align=center;verticalAlign=middle;resizable=0;points=[];autosize=1;strokeColor=none;" vertex="1" parent="1">
          <mxGeometry x="565" y="639" width="30" height="20" as="geometry" />
        </mxCell>
        <mxCell id="aRpkVplMo8si03oJWUbq-30" value="" style="endArrow=classic;html=1;exitX=0.506;exitY=0.986;exitDx=0;exitDy=0;exitPerimeter=0;" edge="1" parent="1" source="aRpkVplMo8si03oJWUbq-18">
          <mxGeometry width="50" height="50" relative="1" as="geometry">
            <mxPoint x="404" y="770" as="sourcePoint" />
            <mxPoint x="415" y="740" as="targetPoint" />
          </mxGeometry>
        </mxCell>
        <mxCell id="aRpkVplMo8si03oJWUbq-31" value="Entonces" style="text;html=1;align=center;verticalAlign=middle;resizable=0;points=[];autosize=1;strokeColor=none;" vertex="1" parent="1">
          <mxGeometry x="414" y="710" width="70" height="20" as="geometry" />
        </mxCell>
        <mxCell id="aRpkVplMo8si03oJWUbq-32" value="s=0&lt;br&gt;m=m+1" style="rounded=1;whiteSpace=wrap;html=1;" vertex="1" parent="1">
          <mxGeometry x="354" y="740" width="120" height="60" as="geometry" />
        </mxCell>
        <mxCell id="aRpkVplMo8si03oJWUbq-33" value="多m=60?" style="html=1;whiteSpace=wrap;aspect=fixed;shape=isoRectangle;" vertex="1" parent="1">
          <mxGeometry x="339" y="830" width="150" height="90" as="geometry" />
        </mxCell>
        <mxCell id="aRpkVplMo8si03oJWUbq-34" value="" style="endArrow=classic;html=1;" edge="1" parent="1">
          <mxGeometry width="50" height="50" relative="1" as="geometry">
            <mxPoint x="412" y="800" as="sourcePoint" />
            <mxPoint x="412" y="840" as="targetPoint" />
          </mxGeometry>
        </mxCell>
        <mxCell id="aRpkVplMo8si03oJWUbq-35" value="" style="endArrow=none;html=1;" edge="1" parent="1">
          <mxGeometry width="50" height="50" relative="1" as="geometry">
            <mxPoint x="484.4999999999998" y="874.41" as="sourcePoint" />
            <mxPoint x="680" y="874" as="targetPoint" />
          </mxGeometry>
        </mxCell>
        <mxCell id="aRpkVplMo8si03oJWUbq-36" value="No" style="text;html=1;align=center;verticalAlign=middle;resizable=0;points=[];autosize=1;strokeColor=none;" vertex="1" parent="1">
          <mxGeometry x="565" y="850" width="30" height="20" as="geometry" />
        </mxCell>
        <mxCell id="aRpkVplMo8si03oJWUbq-37" value="" style="endArrow=none;html=1;" edge="1" parent="1">
          <mxGeometry width="50" height="50" relative="1" as="geometry">
            <mxPoint x="680" y="880" as="sourcePoint" />
            <mxPoint x="680" y="650" as="targetPoint" />
          </mxGeometry>
        </mxCell>
        <mxCell id="aRpkVplMo8si03oJWUbq-38" value="m=0&lt;br&gt;h=h+1" style="rounded=1;whiteSpace=wrap;html=1;" vertex="1" parent="1">
          <mxGeometry x="354" y="950" width="120" height="60" as="geometry" />
        </mxCell>
        <mxCell id="aRpkVplMo8si03oJWUbq-39" value="多h=24?" style="html=1;whiteSpace=wrap;aspect=fixed;shape=isoRectangle;" vertex="1" parent="1">
          <mxGeometry x="339" y="1030" width="150" height="90" as="geometry" />
        </mxCell>
        <mxCell id="aRpkVplMo8si03oJWUbq-40" value="mostrar h&lt;br&gt;mostrar m&lt;br&gt;mostrar s" style="rounded=1;whiteSpace=wrap;html=1;" vertex="1" parent="1">
          <mxGeometry x="354" y="1160" width="120" height="60" as="geometry" />
        </mxCell>
        <mxCell id="aRpkVplMo8si03oJWUbq-41" value="FIN" style="ellipse;whiteSpace=wrap;html=1;" vertex="1" parent="1">
          <mxGeometry x="354" y="1260" width="120" height="80" as="geometry" />
        </mxCell>
        <mxCell id="aRpkVplMo8si03oJWUbq-42" value="" style="endArrow=classic;html=1;" edge="1" parent="1">
          <mxGeometry width="50" height="50" relative="1" as="geometry">
            <mxPoint x="414" y="920" as="sourcePoint" />
            <mxPoint x="414" y="950" as="targetPoint" />
          </mxGeometry>
        </mxCell>
        <mxCell id="aRpkVplMo8si03oJWUbq-43" value="" style="endArrow=classic;html=1;" edge="1" parent="1">
          <mxGeometry width="50" height="50" relative="1" as="geometry">
            <mxPoint x="413.9999999999998" y="1010" as="sourcePoint" />
            <mxPoint x="413.9999999999998" y="1040" as="targetPoint" />
          </mxGeometry>
        </mxCell>
        <mxCell id="aRpkVplMo8si03oJWUbq-44" value="" style="endArrow=classic;html=1;exitX=0.49;exitY=0.982;exitDx=0;exitDy=0;exitPerimeter=0;" edge="1" parent="1" source="aRpkVplMo8si03oJWUbq-39">
          <mxGeometry width="50" height="50" relative="1" as="geometry">
            <mxPoint x="413.9999999999998" y="1130" as="sourcePoint" />
            <mxPoint x="413.9999999999998" y="1160" as="targetPoint" />
          </mxGeometry>
        </mxCell>
        <mxCell id="aRpkVplMo8si03oJWUbq-45" value="" style="endArrow=classic;html=1;exitX=0.5;exitY=1;exitDx=0;exitDy=0;" edge="1" parent="1" source="aRpkVplMo8si03oJWUbq-40">
          <mxGeometry width="50" height="50" relative="1" as="geometry">
            <mxPoint x="412.81999999999977" y="1230" as="sourcePoint" />
            <mxPoint x="412.81999999999977" y="1260" as="targetPoint" />
          </mxGeometry>
        </mxCell>
        <mxCell id="aRpkVplMo8si03oJWUbq-46" value="" style="endArrow=none;html=1;" edge="1" parent="1">
          <mxGeometry width="50" height="50" relative="1" as="geometry">
            <mxPoint x="488.9999999999998" y="1074.82" as="sourcePoint" />
            <mxPoint x="684.5" y="1074.41" as="targetPoint" />
          </mxGeometry>
        </mxCell>
        <mxCell id="aRpkVplMo8si03oJWUbq-47" value="" style="endArrow=none;html=1;" edge="1" parent="1">
          <mxGeometry width="50" height="50" relative="1" as="geometry">
            <mxPoint x="680" y="1080" as="sourcePoint" />
            <mxPoint x="680" y="850" as="targetPoint" />
          </mxGeometry>
        </mxCell>
        <mxCell id="aRpkVplMo8si03oJWUbq-48" value="" style="endArrow=none;html=1;" edge="1" parent="1">
          <mxGeometry width="50" height="50" relative="1" as="geometry">
            <mxPoint x="200" y="1300" as="sourcePoint" />
            <mxPoint x="200" y="170" as="targetPoint" />
          </mxGeometry>
        </mxCell>
        <mxCell id="aRpkVplMo8si03oJWUbq-49" value="" style="endArrow=classic;html=1;entryX=0;entryY=0.5;entryDx=0;entryDy=0;" edge="1" parent="1" target="aRpkVplMo8si03oJWUbq-41">
          <mxGeometry width="50" height="50" relative="1" as="geometry">
            <mxPoint x="200" y="1300" as="sourcePoint" />
            <mxPoint x="250" y="1250" as="targetPoint" />
          </mxGeometry>
        </mxCell>
        <mxCell id="aRpkVplMo8si03oJWUbq-50" value="Entonces&amp;nbsp;&lt;br&gt;" style="text;html=1;align=center;verticalAlign=middle;resizable=0;points=[];autosize=1;strokeColor=none;" vertex="1" parent="1">
          <mxGeometry x="419" y="490" width="70" height="20" as="geometry" />
        </mxCell>
        <mxCell id="aRpkVplMo8si03oJWUbq-51" value="si" style="text;html=1;align=center;verticalAlign=middle;resizable=0;points=[];autosize=1;strokeColor=none;" vertex="1" parent="1">
          <mxGeometry x="420" y="590" width="20" height="20" as="geometry" />
        </mxCell>
        <mxCell id="aRpkVplMo8si03oJWUbq-52" value="no" style="text;html=1;align=center;verticalAlign=middle;resizable=0;points=[];autosize=1;strokeColor=none;" vertex="1" parent="1">
          <mxGeometry x="555" y="1050" width="30" height="20" as="geometry" />
        </mxCell>
        <mxCell id="aRpkVplMo8si03oJWUbq-53" value="Entonces" style="text;html=1;align=center;verticalAlign=middle;resizable=0;points=[];autosize=1;strokeColor=none;" vertex="1" parent="1">
          <mxGeometry x="405" y="1130" width="70" height="20" as="geometry" />
        </mxCell>
        <mxCell id="aRpkVplMo8si03oJWUbq-54" value="Si" style="text;html=1;align=center;verticalAlign=middle;resizable=0;points=[];autosize=1;strokeColor=none;" vertex="1" parent="1">
          <mxGeometry x="425" y="810" width="30" height="20" as="geometry" />
        </mxCell>
        <mxCell id="aRpkVplMo8si03oJWUbq-55" value="Entonces" style="text;html=1;align=center;verticalAlign=middle;resizable=0;points=[];autosize=1;strokeColor=none;" vertex="1" parent="1">
          <mxGeometry x="405" y="920" width="70" height="20" as="geometry" />
        </mxCell>
        <mxCell id="aRpkVplMo8si03oJWUbq-56" value="Si" style="text;html=1;align=center;verticalAlign=middle;resizable=0;points=[];autosize=1;strokeColor=none;" vertex="1" parent="1">
          <mxGeometry x="435" y="1020" width="30" height="20" as="geometry" />
        </mxCell>
      </root>
    </mxGraphModel>
  </diagram>
</mxfile>
